{
  "asset": {
    "version": "2.0",
    "generator": "THREE.GLTFExporter"
  },
  "scenes": [
    {
      "name": "Scene",
      "nodes": [
        5
      ]
    }
  ],
  "scene": 0,
  "nodes": [
    {
      "name": "defaultMaterial",
      "extras": {
        "name": "defaultMaterial"
      },
      "mesh": 0
    },
    {
      "name": "pSphere1",
      "extras": {
        "name": "pSphere1"
      },
      "children": [
        0
      ]
    },
    {
      "matrix": [
        1,
        0,
        0,
        0,
        0,
        -4.3711390729228576e-8,
        0.9999999999999991,
        0,
        0,
        -0.9999999999999991,
        -4.3711390729228576e-8,
        0,
        0,
        0,
        0,
        1
      ],
      "name": "Collada_visual_scene_group",
      "extras": {
        "name": "Collada visual scene group"
      },
      "children": [
        1
      ]
    },
    {
      "matrix": [
        1,
        0,
        0,
        0,
        0,
        2.220446049250313e-16,
        -1,
        0,
        0,
        1,
        2.220446049250313e-16,
        0,
        0,
        0,
        0,
        1
      ],
      "name": "Sketchfab_model",
      "extras": {
        "name": "Sketchfab_model"
      },
      "children": [
        2
      ]
    },
    {
      "name": "army_parachuteglb",
      "extras": {
        "name": "army_parachute.glb"
      },
      "children": [
        3
      ]
    },
    {
      "name": "seccon.gltf",
      "children": [
        4
      ]
    }
  ],
  "bufferViews": [
    {
      "buffer": 0,
      "byteOffset": 0,
      "byteLength": 145800,
      "target": 34962,
      "byteStride": 12
    },
    {
      "buffer": 0,
      "byteOffset": 145800,
      "byteLength": 145800,
      "target": 34962,
      "byteStride": 12
    },
    {
      "buffer": 0,
      "byteOffset": 291600,
      "byteLength": 194400,
      "target": 34962,
      "byteStride": 16
    },
    {
      "buffer": 0,
      "byteOffset": 486000,
      "byteLength": 97200,
      "target": 34962,
      "byteStride": 8
    },
    {
      "buffer": 0,
      "byteOffset": 583200,
      "byteLength": 97200,
      "target": 34962,
      "byteStride": 8
    },
    {
      "buffer": 0,
      "byteOffset": 680400,
      "byteLength": 213480,
      "target": 34963
    }
  ],
  "buffers": [
    {
      "byteLength": 893880,
      "uri": "data:application/octet-stream;base64,"
    }
  ],
  "accessors": [
    {
      "bufferView": 0,
      "componentType": 5126,
      "count": 12150,
      "max": [
        0.9988452196121216,
        0.9996517896652222,
        0.9988685250282288
      ],
      "min": [
        -0.9988452196121216,
        -0.9383566379547119,
        -0.9988685250282288
      ],
      "type": "VEC3"
    },
    {
      "bufferView": 1,
      "componentType": 5126,
      "count": 12150,
      "max": [
        0.6744189858436584,
        1,
        0.6744160056114197
      ],
      "min": [
        -0.6744189858436584,
        -1,
        -0.6744160056114197
      ],
      "type": "VEC3"
    },
    {
      "bufferView": 2,
      "componentType": 5126,
      "count": 12150,
      "max": [
        0.9997457265853882,
        0.9996534585952759,
        0.9985126256942749,
        1
      ],
      "min": [
        -0.9997462034225464,
        -0.9996539950370789,
        -0.9985215067863464,
        -1
      ],
      "type": "VEC4"
    },
    {
      "bufferView": 3,
      "componentType": 5126,
      "count": 12150,
      "max": [
        0.9853780269622803,
        0.9980469942092896
      ],
      "min": [
        0.0019531298894435167,
        0.0019531298894435167
      ],
      "type": "VEC2"
    },
    {
      "bufferView": 4,
      "componentType": 5126,
      "count": 12150,
      "max": [
        0.9853780269622803,
        0.9980469942092896
      ],
      "min": [
        0.0019531298894435167,
        0.0019531298894435167
      ],
      "type": "VEC2"
    },
    {
      "bufferView": 5,
      "componentType": 5125,
      "count": 53370,
      "max": [
        12149
      ],
      "min": [
        0
      ],
      "type": "SCALAR"
    }
  ],
  "materials": [
    {
      "pbrMetallicRoughness": {
        "baseColorFactor": [
          0.19215686274509805,
          0.49019607843137253,
          0.2235294117647059,
          1
        ],
        "metallicFactor": 0.5,
        "roughnessFactor": 0.5
      },
      "emissiveFactor": [
        0.29411764705882354,
        0.3254901960784314,
        0.12549019607843137
      ]
    }
  ],
  "meshes": [
    {
      "primitives": [
        {
          "mode": 4,
          "attributes": {
            "NORMAL": 0,
            "POSITION": 1,
            "TANGENT": 2,
            "TEXCOORD_0": 3,
            "TEXCOORD_1": 4
          },
          "indices": 5,
          "material": 0
        }
      ]
    }
  ]
}